<?xml version="1.0" encoding="UTF-8"?>
<svg width="51px" height="50px" viewBox="0 0 51 50" version="1.1" xmlns="http://www.w3.org/2000/svg" xmlns:xlink="http://www.w3.org/1999/xlink">
    <!-- Generator: Sketch 50.2 (55047) - http://www.bohemiancoding.com/sketch -->
    <title>Absa logo_Surprise_RGB_SVG</title>
    <desc>Created with Sketch.</desc>
    <defs></defs>
    <g id="Page-1" stroke="none" stroke-width="1" fill="none" fill-rule="evenodd">
        <g id="Absa-logo_Surprise_RGB_SVG" fill="#AF1E4D" fill-rule="nonzero">
            <path d="M45.685,17.51375 C47.4382894,22.3505998 47.4382894,27.6494002 45.685,32.48625 L48.6225,33.555 C50.6258686,28.0275939 50.6258686,21.9724061 48.6225,16.445 L45.685,17.51375 Z M2.4625,35.57 C6.57295322,44.3731778 15.4094576,49.9994864 25.125,49.9994864 C34.8405424,49.9994864 43.6770468,44.3731778 47.7875,35.57 L44.95375,34.25 C41.3580467,41.9533352 33.6262032,46.8769892 25.125,46.8769892 C16.6237968,46.8769892 8.89195333,41.9533352 5.29625,34.25 L2.4625,35.57 Z M4.565,17.51375 L1.625,16.445 C-0.378368638,21.9724061 -0.378368638,28.0275939 1.625,33.555 L4.5625,32.48625 C2.8092106,27.6494002 2.8092106,22.3505998 4.5625,17.51375 L4.565,17.51375 Z M47.7875,14.43 C43.6770468,5.6268222 34.8405424,0.000513572888 25.125,0.000513572888 C15.4094576,0.000513572888 6.57295322,5.6268222 2.4625,14.43 L5.29625,15.75 C8.89195333,8.04666476 16.6237968,3.12301077 25.125,3.12301077 C33.6262032,3.12301077 41.3580467,8.04666476 44.95375,15.75 L47.7875,14.43 Z" id="Shape"></path>
            <path d="M20.33375,27.765 C19.8416347,27.7616226 19.3517681,27.6982379 18.875,27.57625 L18.875,22.4275 C19.3521903,22.3072453 19.8417,22.2426485 20.33375,22.235 C21.75375,22.235 22.43625,22.87875 22.43625,25 C22.43625,27.12125 21.75375,27.765 20.33375,27.765 M20.75,20 C20.1186049,20.0139625 19.4903112,20.0927086 18.875,20.235 L18.875,15 L16.26125,15.28375 L16.26125,29.3375 C17.34125,29.6775 18.7425,30 20.125,30 C23.26875,30 25.125,28.93875 25.125,25 C25.125,21.06125 23.26875,20 20.75,20" id="Shape"></path>
            <path d="M30.8575,23.845 C29.74,23.82625 29.03875,23.80625 29.03875,23.20125 C29.03875,22.405 29.5125,22.235 30.95125,22.235 C31.9194348,22.2555191 32.8828982,22.3761615 33.82625,22.595 L33.625,20.43625 C32.695011,20.1617889 31.732027,20.0150285 30.7625,20 C27.61875,20 26.40625,21.13625 26.40625,23.27625 C26.40625,25.34125 27.675,25.87125 29.815,25.90875 C31.1975,25.9275 31.9175,25.89 31.9175,26.79875 C31.9175,27.595 31.2925,27.765 29.9475,27.765 C28.818692,27.7828858 27.6941016,27.6230134 26.615,27.29125 L26.8225,29.45125 C27.8225,29.81 28.77375,30 30.15625,30 C33.50875,30 34.55,28.86375 34.55,26.81875 C34.55,24.2425 32.865,23.8825 30.8575,23.845" id="Shape"></path>
            <path d="M11.88625,27.69 C11.467693,27.7689568 11.0433392,27.8132736 10.6175,27.8225 C9.48125,27.8225 9.0075,27.4625 9.0075,26.685 C9.0075,25.87125 9.4625,25.73875 10.40875,25.685 L11.88625,25.59125 L11.88625,27.69 Z M10.26125,20 C9.26091014,20.0081283 8.2664966,20.154514 7.30625,20.435 L7.09875,22.595 C8.04331482,22.3830441 9.00608663,22.2624883 9.97375,22.235 C11.3375,22.235 11.88625,22.34875 11.88625,23.4475 L11.88625,23.75 L10.0675,23.845 C8.06,23.95875 6.375,24.29875 6.375,26.81875 C6.375,28.86375 7.41625,30 10.56,30 C12.01875,30 13.42,29.6775 14.5,29.3375 L14.5,23.27625 C14.5,21.13625 13.30625,20 10.2575,20 L10.26125,20 Z" id="Shape"></path>
            <path d="M41.26125,27.69 C40.842693,27.7689568 40.4183392,27.8132736 39.9925,27.8225 C38.85625,27.8225 38.3825,27.4625 38.3825,26.685 C38.3825,25.87125 38.8375,25.73875 39.78375,25.685 L41.26125,25.59125 L41.26125,27.69 Z M39.63625,20 C38.636328,20.0082274 37.6423408,20.1546123 36.6825,20.435 L36.47375,22.595 C37.4183281,22.3831203 38.3810925,22.2625655 39.34875,22.235 C40.7125,22.235 41.26125,22.34875 41.26125,23.4475 L41.26125,23.75 L39.44375,23.845 C37.43625,23.95875 35.75,24.2425 35.75,26.81875 C35.75,28.86375 36.79125,30 39.93625,30 C41.39375,30 42.795,29.6775 43.875,29.3375 L43.875,23.27625 C43.875,21.13625 42.6825,20 39.6325,20 L39.63625,20 Z" id="Shape"></path>
        </g>
    </g>
</svg>